# xmcd
#
# Track frame offsets:
#	182
#	20062
#	40225
#	79165
#
# Disc length: 1316 seconds
#
# Revision: 2
# Processed by: cddbd v1.5.1PL0 Copyright (c) Steve Scherf et al.
# Submitted via: dBpowerAMP V4.0
#
DISCID=2a052204
DTITLE=Sieko - Let'sTalkAboutIt;A&M31458-1563-2
DYEAR=1996
DGENRE=blues
TTITLE0=Let'sTalkAboutIt[R&BStreetMix,withoutRap](RobbieNevil,Seiko;1996,Seiko)
TTITLE1=Let'sTalkAboutIt[R&BStreetMix,withRap](RobbieNevil,Seiko;1996,Seiko)
TTITLE2=Let'sTalkAboutIt[JuniorVasquez'sExtendedClubMix](RobbieNevil,Seiko;1996,Seiko)
TTITLE3=Let'sTalkAboutIt[LPVersion](RobbieNevil,Seiko;1996,Seiko)
EXTD=
EXTT0=
EXTT1=
EXTT2=
EXTT3=
PLAYORDER=
